<?xml version="1.0" encoding="UTF-8"?>
<svg width="422px" height="68px" viewBox="0 0 422 68" version="1.1" xmlns="http://www.w3.org/2000/svg"
    xmlns:xlink="http://www.w3.org/1999/xlink">
    <title>That's all in the browser!</title>
    <g id="browser-text" stroke="none" stroke-width="1" fill="none" fill-rule="evenodd">
        <g id="That's-all-in-the-br"
            transform="translate(276.809566, 37.344850) rotate(-4.000000) translate(-276.809566, -37.344850) translate(134.429566, 24.184850)"
            fill="#3D3D3D" fill-rule="nonzero">
            <path
                d="M16.835,3.535 C16.835,3.93166667 16.7125,4.27583333 16.4675,4.5675 C16.2225,4.85916667 15.9133333,5.005 15.54,5.005 C15.33,5.005 14.9391667,4.90583333 14.3675,4.7075 C13.7958333,4.50916667 13.3233333,4.41 12.95,4.41 C11.9466667,4.41 11.1416667,4.41 10.535,4.41 C10.185,4.41 9.9925,4.43916667 9.9575,4.4975 C9.9225,4.55583333 9.88166667,4.78333333 9.835,5.18 C9.74166667,5.76333333 9.60166667,6.63833333 9.415,7.805 C8.97166667,10.9783333 8.75,14.56 8.75,18.55 C8.75,21.2566667 9.065,23.1116667 9.695,24.115 L9.695,25.06 C9.25166667,25.2933333 8.90166667,25.41 8.645,25.41 C7.15166667,25.41 6.18333333,24.6866667 5.74,23.24 C5.53,22.54 5.425,21.1983333 5.425,19.215 C5.425,16.905 5.47166667,15.1083333 5.565,13.825 C5.58833333,13.265 5.71666667,11.9233333 5.95,9.8 C6.13666667,8.14333333 6.23,6.80166667 6.23,5.775 L6.195,4.76 C5.86833333,4.78333333 5.23833333,4.865 4.305,5.005 C3.535,5.12166667 2.905,5.18 2.415,5.18 C0.805,5.18 -1.03355612e-13,4.70166667 -1.03355612e-13,3.745 C-1.03355612e-13,3.34833333 0.116666667,3.115 0.35,3.045 C0.7,2.53166667 2.53166667,2.08833333 5.845,1.715 C8.41166667,1.435 10.4883333,1.295 12.075,1.295 C13.195,1.295 14.175,1.435 15.015,1.715 C16.2283333,2.11166667 16.835,2.71833333 16.835,3.535 Z"
                id="Path"></path>
            <path
                d="M29.925,25.375 C29.4816667,25.8183333 28.8983333,26.04 28.175,26.04 C27.685,26.04 27.1833333,25.7366667 26.67,25.13 C26.6933333,23.0766667 26.705,21.49 26.705,20.37 C26.705,15.19 25.9466667,12.6 24.43,12.6 C22.8666667,12.6 22.085,14.6883333 22.085,18.865 C22.085,19.0983333 22.0966667,19.4366667 22.12,19.88 C22.12,20.3233333 22.12,20.6616667 22.12,20.895 C22.12,21.245 22.1783333,21.7758333 22.295,22.4875 C22.4116667,23.1991667 22.47,23.73 22.47,24.08 C22.47,24.3833333 22.2891667,24.6575 21.9275,24.9025 C21.5658333,25.1475 21.2333333,25.27 20.93,25.27 C20.3466667,25.27 19.8508333,25.0308333 19.4425,24.5525 C19.0341667,24.0741667 18.83,23.5433333 18.83,22.96 L19.04,2.73 C19.04,2.66 19.0283333,2.56666667 19.005,2.45 C18.9816667,2.33333333 18.97,2.25166667 18.97,2.205 C18.97,1.365 19.4366667,0.945 20.37,0.945 C20.8133333,0.945 21.3266667,1.14916667 21.91,1.5575 C22.4933333,1.96583333 22.785,2.38 22.785,2.8 C22.785,3.31333333 22.6741667,4.07166667 22.4525,5.075 C22.2308333,6.07833333 22.12,6.83666667 22.12,7.35 C22.12,8.00333333 22.1433333,9.04166667 22.19,10.465 C22.7033333,10.1616667 23.135,10.01 23.485,10.01 C24.395,10.01 25.3866667,10.2316667 26.46,10.675 C27.8366667,11.2583333 28.7933333,12.2033333 29.33,13.51 C29.7266667,14.49 29.925,15.8433333 29.925,17.57 L29.925,25.375 Z"
                id="Path"></path>
            <path
                d="M44.45,18.865 C44.45,21.875 44.3566667,23.9983333 44.17,25.235 C44.0533333,25.9583333 43.5633333,26.32 42.7,26.32 C41.3933333,26.32 40.81,25.6666667 40.95,24.36 C39.7833333,24.92 38.57,25.2 37.31,25.2 C36.0966667,25.2 34.9416667,24.8966667 33.845,24.29 C32.5383333,23.5666667 31.885,22.645 31.885,21.525 C31.885,20.4283333 32.6316667,19.4016667 34.125,18.445 C35.4783333,17.5816667 36.75,17.15 37.94,17.15 L40.915,17.15 L40.915,16.31 C40.9383333,13.86 40.215,12.635 38.745,12.635 C36.9016667,12.635 35.98,13.4983333 35.98,15.225 C35.98,15.8083333 35.6533333,16.1 35,16.1 C34.6033333,16.1 34.1891667,15.9191667 33.7575,15.5575 C33.3258333,15.1958333 33.11,14.8166667 33.11,14.42 C33.11,13.1133333 33.5766667,12.04 34.51,11.2 C35.4433333,10.36 36.5633333,9.94 37.87,9.94 C42.2566667,9.94 44.45,12.915 44.45,18.865 Z M40.915,20.125 C40.915,19.6583333 40.565,19.425 39.865,19.425 C36.9483333,19.425 35.49,20.1133333 35.49,21.49 C35.49,22.2366667 36.1316667,22.61 37.415,22.61 C38.2083333,22.61 38.955,22.3883333 39.655,21.945 C40.495,21.455 40.915,20.8483333 40.915,20.125 Z"
                id="Shape"></path>
            <path
                d="M54.32,12.285 C54.32,12.915 53.3516667,13.3583333 51.415,13.615 C51.3683333,14.1283333 51.345,15.295 51.345,17.115 L51.345,19.425 C51.345,19.8916667 51.4208333,20.58 51.5725,21.49 C51.7241667,22.4 51.8,23.0766667 51.8,23.52 C51.8,23.8933333 51.6133333,24.2258333 51.24,24.5175 C50.8666667,24.8091667 50.4933333,24.955 50.12,24.955 C49.5366667,24.955 49.0466667,24.4533333 48.65,23.45 C48.3466667,22.68 48.195,21.9333333 48.195,21.21 L48.195,13.79 C47.1216667,13.6266667 46.5033333,13.5216667 46.34,13.475 C45.7333333,13.2883333 45.43,13.02 45.43,12.67 C45.43,12.5766667 45.4533333,12.4716667 45.5,12.355 C46.1066667,11.4916667 46.7833333,11.06 47.53,11.06 C47.5766667,11.06 47.6466667,11.06 47.74,11.06 C47.8333333,11.0833333 47.9033333,11.095 47.95,11.095 C48.44,11.095 48.6733333,10.5233333 48.65,9.38 L48.65,6.825 C48.51,6.56833333 48.44,6.34666667 48.44,6.16 C48.44,5.85666667 48.6208333,5.5825 48.9825,5.3375 C49.3441667,5.0925 49.6883333,4.97 50.015,4.97 C50.505,4.97 50.9716667,5.1975 51.415,5.6525 C51.8583333,6.1075 52.08,6.59166667 52.08,7.105 C52.08,7.665 51.9925,8.21916667 51.8175,8.7675 C51.6425,9.31583333 51.5666667,9.88166667 51.59,10.465 L51.59,10.605 C53.41,10.7916667 54.32,11.3516667 54.32,12.285 Z"
                id="Path"></path>
            <path
                d="M59.29,1.89 C59.29,1.91333333 59.1733333,2.19333333 58.94,2.73 C58.7066667,3.26666667 58.59,3.76833333 58.59,4.235 C58.59,4.56166667 58.5491667,5.04 58.4675,5.67 C58.3858333,6.3 58.345,6.77833333 58.345,7.105 C58.345,7.665 58.345,7.95666667 58.345,7.98 C58.275,8.14333333 58.0533333,8.225 57.68,8.225 C56.9566667,8.225 56.455,7.98 56.175,7.49 L56.175,7.315 C56.175,6.335 56.2683333,5.16833333 56.455,3.815 C56.7116667,1.995 57.0733333,1.015 57.54,0.875 C57.68,0.828333333 57.7616667,0.805 57.785,0.805 C58.1116667,0.805 58.4441667,0.91 58.7825,1.12 C59.1208333,1.33 59.29,1.58666667 59.29,1.89 Z"
                id="Path"></path>
            <path
                d="M73.045,21.28 C73.045,22.3766667 72.5783333,23.3333333 71.645,24.15 C70.6183333,25.0366667 69.2416667,25.48 67.515,25.48 C66.7683333,25.5033333 65.9633333,25.3516667 65.1,25.025 C62.3,23.975 60.9,23.1233333 60.9,22.47 C60.9,21.4433333 61.635,20.93 63.105,20.93 C63.315,20.93 63.5366667,20.9416667 63.77,20.965 C63.84,21.665 64.4,22.225 65.45,22.645 C66.36,23.0183333 67.235,23.17 68.075,23.1 C68.7516667,23.0533333 69.09,22.8083333 69.09,22.365 C69.09,22.295 69.0725,22.19 69.0375,22.05 C69.0025,21.91 68.985,21.7991667 68.985,21.7175 C68.985,21.6358333 68.5416667,21.455 67.655,21.175 C66.6516667,20.8716667 66.0916667,20.6966667 65.975,20.65 C63.315,19.0633333 61.985,17.15 61.985,14.91 C61.985,13.5566667 62.37,12.3083333 63.14,11.165 C64.0033333,9.905 65.0766667,9.275 66.36,9.275 C67.3166667,9.275 68.4075,9.64833333 69.6325,10.395 C70.8575,11.1416667 71.61,11.9466667 71.89,12.81 C72.0766667,13.4166667 72.17,13.9183333 72.17,14.315 C72.17,14.735 72.1116667,15.085 71.995,15.365 C71.855,15.715 71.715,16.065 71.575,16.415 C71.1316667,16.7183333 70.6883333,16.87 70.245,16.87 C70.0116667,16.87 69.6208333,16.7241667 69.0725,16.4325 C68.5241667,16.1408333 68.25,15.89 68.25,15.68 C68.25,15.5866667 68.39,15.2833333 68.67,14.77 C68.8333333,14.4666667 68.915,14.21 68.915,14 C68.915,12.6 68.3666667,11.9 67.27,11.9 C66.6166667,11.9 66.115,12.32 65.765,13.16 C65.5083333,13.8133333 65.38,14.5133333 65.38,15.26 C65.38,16.1933333 66.045,17.0333333 67.375,17.78 C68.5883333,18.3166667 69.8133333,18.865 71.05,19.425 C72.38,20.0316667 73.045,20.65 73.045,21.28 Z"
                id="Path"></path>
            <path
                d="M93.45,18.865 C93.45,21.875 93.3566667,23.9983333 93.17,25.235 C93.0533333,25.9583333 92.5633333,26.32 91.7,26.32 C90.3933333,26.32 89.81,25.6666667 89.95,24.36 C88.7833333,24.92 87.57,25.2 86.31,25.2 C85.0966667,25.2 83.9416667,24.8966667 82.845,24.29 C81.5383333,23.5666667 80.885,22.645 80.885,21.525 C80.885,20.4283333 81.6316667,19.4016667 83.125,18.445 C84.4783333,17.5816667 85.75,17.15 86.94,17.15 L89.915,17.15 L89.915,16.31 C89.9383333,13.86 89.215,12.635 87.745,12.635 C85.9016667,12.635 84.98,13.4983333 84.98,15.225 C84.98,15.8083333 84.6533333,16.1 84,16.1 C83.6033333,16.1 83.1891667,15.9191667 82.7575,15.5575 C82.3258333,15.1958333 82.11,14.8166667 82.11,14.42 C82.11,13.1133333 82.5766667,12.04 83.51,11.2 C84.4433333,10.36 85.5633333,9.94 86.87,9.94 C91.2566667,9.94 93.45,12.915 93.45,18.865 Z M89.915,20.125 C89.915,19.6583333 89.565,19.425 88.865,19.425 C85.9483333,19.425 84.49,20.1133333 84.49,21.49 C84.49,22.2366667 85.1316667,22.61 86.415,22.61 C87.2083333,22.61 87.955,22.3883333 88.655,21.945 C89.495,21.455 89.915,20.8483333 89.915,20.125 Z"
                id="Shape"></path>
            <path
                d="M100.205,23.87 C100.205,24.29 100.035833,24.6458333 99.6975,24.9375 C99.3591667,25.2291667 98.9683333,25.375 98.525,25.375 C97.055,25.375 96.32,23.45 96.32,19.6 C96.32,17.85 96.3375,15.225 96.3725,11.725 C96.4075,8.225 96.425,5.6 96.425,3.85 C96.425,3.57 96.39,3.16166667 96.32,2.625 C96.25,2.08833333 96.215,1.69166667 96.215,1.435 C96.985,0.921666667 97.5916667,0.665 98.035,0.665 C98.5483333,0.665 99.0383333,0.834166667 99.505,1.1725 C99.9716667,1.51083333 100.205,1.93666667 100.205,2.45 C100.205,2.70666667 100.146667,3.01 100.03,3.36 C99.8666667,3.92 99.7733333,4.22333333 99.75,4.27 C99.4466667,5.71666667 99.295,7.77 99.295,10.43 C99.295,14.6533333 99.295,16.8233333 99.295,16.94 C99.365,19.88 99.61,21.9333333 100.03,23.1 C100.146667,23.4266667 100.205,23.6833333 100.205,23.87 Z"
                id="Path"></path>
            <path
                d="M106.12,23.87 C106.12,24.29 105.950833,24.6458333 105.6125,24.9375 C105.274167,25.2291667 104.883333,25.375 104.44,25.375 C102.97,25.375 102.235,23.45 102.235,19.6 C102.235,17.85 102.2525,15.225 102.2875,11.725 C102.3225,8.225 102.34,5.6 102.34,3.85 C102.34,3.57 102.305,3.16166667 102.235,2.625 C102.165,2.08833333 102.13,1.69166667 102.13,1.435 C102.9,0.921666667 103.506667,0.665 103.95,0.665 C104.463333,0.665 104.953333,0.834166667 105.42,1.1725 C105.886667,1.51083333 106.12,1.93666667 106.12,2.45 C106.12,2.70666667 106.061667,3.01 105.945,3.36 C105.781667,3.92 105.688333,4.22333333 105.665,4.27 C105.361667,5.71666667 105.21,7.77 105.21,10.43 C105.21,14.6533333 105.21,16.8233333 105.21,16.94 C105.28,19.88 105.525,21.9333333 105.945,23.1 C106.061667,23.4266667 106.12,23.6833333 106.12,23.87 Z"
                id="Path"></path>
            <path
                d="M117.845,6.44 C117.845,6.95333333 117.67,7.37333333 117.32,7.7 C116.97,8.02666667 116.538333,8.19 116.025,8.19 C115.418333,8.19 114.8525,7.98 114.3275,7.56 C113.8025,7.14 113.54,6.62666667 113.54,6.02 C113.54,5.50666667 113.720833,5.08666667 114.0825,4.76 C114.444167,4.43333333 114.893333,4.27 115.43,4.27 C116.06,4.27 116.62,4.47416667 117.11,4.8825 C117.6,5.29083333 117.845,5.81 117.845,6.44 Z M117.53,11.34 C117.53,11.76 117.436667,12.355 117.25,13.125 C117.063333,13.895 116.97,14.49 116.97,14.91 L116.97,22.12 C116.97,22.5633333 117.098333,23.2633333 117.355,24.22 C117.005,24.7566667 116.62,25.025 116.2,25.025 C114.73,25.025 113.925,24.29 113.785,22.82 C113.551667,20.09 113.435,18.0366667 113.435,16.66 C113.435,14.35 113.528333,12.4133333 113.715,10.85 C113.691667,10.7333333 113.68,10.6166667 113.68,10.5 C113.68,10.08 114.006667,9.87 114.66,9.87 C115.243333,9.87 115.826667,9.98666667 116.41,10.22 C117.156667,10.4766667 117.53,10.85 117.53,11.34 Z"
                id="Shape"></path>
            <path
                d="M131.985,24.57 C131.635,25.1066667 131.203333,25.375 130.69,25.375 C130.293333,25.375 129.64,25.1416667 128.73,24.675 L128.73,24.255 C128.73,23.7416667 128.7475,22.9833333 128.7825,21.98 C128.8175,20.9766667 128.835,20.2416667 128.835,19.775 C128.835,14.7816667 128.088333,12.285 126.595,12.285 C126.175,12.285 125.696667,12.6116667 125.16,13.265 C123.503333,15.2716667 122.675,17.6866667 122.675,20.51 C122.675,20.9066667 122.750833,21.4958333 122.9025,22.2775 C123.054167,23.0591667 123.13,23.6483333 123.13,24.045 C123.13,24.3716667 122.978333,24.64 122.675,24.85 C122.371667,25.06 122.045,25.165 121.695,25.165 C120.295,25.165 119.595,24.2783333 119.595,22.505 L119.595,15.19 C119.595,15.0033333 119.618333,14.7291667 119.665,14.3675 C119.711667,14.0058333 119.735,13.7316667 119.735,13.545 C119.735,13.265 119.694167,12.8566667 119.6125,12.32 C119.530833,11.7833333 119.49,11.3866667 119.49,11.13 C119.49,10.7566667 119.705833,10.4008333 120.1375,10.0625 C120.569167,9.72416667 120.96,9.555 121.31,9.555 C121.823333,9.555 122.348333,9.84666667 122.885,10.43 L122.78,11.83 C123.643333,10.4533333 124.705,9.765 125.965,9.765 C126.781667,9.765 127.645,10.045 128.555,10.605 C129.465,11.165 130.13,11.795 130.55,12.495 C131.506667,14.2683333 131.985,16.6016667 131.985,19.495 L131.985,24.57 Z"
                id="Path"></path>
            <path
                d="M148.785,12.285 C148.785,12.915 147.816667,13.3583333 145.88,13.615 C145.833333,14.1283333 145.81,15.295 145.81,17.115 L145.81,19.425 C145.81,19.8916667 145.885833,20.58 146.0375,21.49 C146.189167,22.4 146.265,23.0766667 146.265,23.52 C146.265,23.8933333 146.078333,24.2258333 145.705,24.5175 C145.331667,24.8091667 144.958333,24.955 144.585,24.955 C144.001667,24.955 143.511667,24.4533333 143.115,23.45 C142.811667,22.68 142.66,21.9333333 142.66,21.21 L142.66,13.79 C141.586667,13.6266667 140.968333,13.5216667 140.805,13.475 C140.198333,13.2883333 139.895,13.02 139.895,12.67 C139.895,12.5766667 139.918333,12.4716667 139.965,12.355 C140.571667,11.4916667 141.248333,11.06 141.995,11.06 C142.041667,11.06 142.111667,11.06 142.205,11.06 C142.298333,11.0833333 142.368333,11.095 142.415,11.095 C142.905,11.095 143.138333,10.5233333 143.115,9.38 L143.115,6.825 C142.975,6.56833333 142.905,6.34666667 142.905,6.16 C142.905,5.85666667 143.085833,5.5825 143.4475,5.3375 C143.809167,5.0925 144.153333,4.97 144.48,4.97 C144.97,4.97 145.436667,5.1975 145.88,5.6525 C146.323333,6.1075 146.545,6.59166667 146.545,7.105 C146.545,7.665 146.4575,8.21916667 146.2825,8.7675 C146.1075,9.31583333 146.031667,9.88166667 146.055,10.465 L146.055,10.605 C147.875,10.7916667 148.785,11.3516667 148.785,12.285 Z"
                id="Path"></path>
            <path
                d="M161.175,25.375 C160.731667,25.8183333 160.148333,26.04 159.425,26.04 C158.935,26.04 158.433333,25.7366667 157.92,25.13 C157.943333,23.0766667 157.955,21.49 157.955,20.37 C157.955,15.19 157.196667,12.6 155.68,12.6 C154.116667,12.6 153.335,14.6883333 153.335,18.865 C153.335,19.0983333 153.346667,19.4366667 153.37,19.88 C153.37,20.3233333 153.37,20.6616667 153.37,20.895 C153.37,21.245 153.428333,21.7758333 153.545,22.4875 C153.661667,23.1991667 153.72,23.73 153.72,24.08 C153.72,24.3833333 153.539167,24.6575 153.1775,24.9025 C152.815833,25.1475 152.483333,25.27 152.18,25.27 C151.596667,25.27 151.100833,25.0308333 150.6925,24.5525 C150.284167,24.0741667 150.08,23.5433333 150.08,22.96 L150.29,2.73 C150.29,2.66 150.278333,2.56666667 150.255,2.45 C150.231667,2.33333333 150.22,2.25166667 150.22,2.205 C150.22,1.365 150.686667,0.945 151.62,0.945 C152.063333,0.945 152.576667,1.14916667 153.16,1.5575 C153.743333,1.96583333 154.035,2.38 154.035,2.8 C154.035,3.31333333 153.924167,4.07166667 153.7025,5.075 C153.480833,6.07833333 153.37,6.83666667 153.37,7.35 C153.37,8.00333333 153.393333,9.04166667 153.44,10.465 C153.953333,10.1616667 154.385,10.01 154.735,10.01 C155.645,10.01 156.636667,10.2316667 157.71,10.675 C159.086667,11.2583333 160.043333,12.2033333 160.58,13.51 C160.976667,14.49 161.175,15.8433333 161.175,17.57 L161.175,25.375 Z"
                id="Path"></path>
            <path
                d="M174.44,21.735 C174.44,22.9016667 173.646667,23.8116667 172.06,24.465 C170.823333,24.9783333 169.528333,25.235 168.175,25.235 C164.581667,25.235 162.785,23.1933333 162.785,19.11 C162.785,17.43 163.193333,15.5633333 164.01,13.51 C165.013333,10.99 166.226667,9.73 167.65,9.73 C168.933333,9.73 170.315833,10.3016667 171.7975,11.445 C173.279167,12.5883333 174.02,13.7783333 174.02,15.015 C174.02,16.555 173.331667,17.78 171.955,18.69 C170.741667,19.5066667 169.295,19.915 167.615,19.915 C167.288333,19.915 166.763333,19.7166667 166.04,19.32 C166.133333,21.5366667 166.786667,22.645 168,22.645 C169.026667,22.645 170.035833,22.3533333 171.0275,21.77 C172.019167,21.1866667 172.655,20.895 172.935,20.895 C173.938333,20.895 174.44,21.175 174.44,21.735 Z M170.625,15.12 C170.625,14.5366667 170.455833,13.9825 170.1175,13.4575 C169.779167,12.9325 169.33,12.67 168.77,12.67 C168,12.67 167.405,13.0083333 166.985,13.685 C166.635,14.2683333 166.46,14.9566667 166.46,15.75 C166.46,16.1933333 166.611667,16.555 166.915,16.835 C167.218333,17.115 167.603333,17.255 168.07,17.255 C169.773333,17.255 170.625,16.5433333 170.625,15.12 Z"
                id="Shape"></path>
            <path
                d="M194.075,16.87 C194.075,18.97 193.713333,20.755 192.99,22.225 C192.056667,24.115 190.645,25.06 188.755,25.06 C188.148333,25.06 187.191667,24.8383333 185.885,24.395 C185.908333,24.5583333 185.92,24.71 185.92,24.85 C185.92,25.62 185.488333,26.005 184.625,26.005 C183.995,26.005 183.481667,25.7716667 183.085,25.305 C182.898333,25.095 182.746667,24.3716667 182.63,23.135 C182.513333,22.1083333 182.455,21.3033333 182.455,20.72 L182.455,20.58 L182.98,0.805 C183.353333,0.221666667 183.796667,-0.0233333333 184.31,0.07 C184.426667,0.0233333333 184.543333,-1.40031272e-13 184.66,-1.40031272e-13 C185.08,-1.40031272e-13 185.470833,0.250833333 185.8325,0.7525 C186.194167,1.25416667 186.375,1.72666667 186.375,2.17 C186.375,3.17333333 186.281667,4.515 186.095,6.195 C185.861667,8.13166667 185.733333,9.46166667 185.71,10.185 C186.386667,9.36833333 187.261667,8.96 188.335,8.96 C189.618333,8.96 190.773333,9.42083333 191.8,10.3425 C192.826667,11.2641667 193.491667,12.3783333 193.795,13.685 C193.981667,14.4783333 194.075,15.54 194.075,16.87 Z M190.82,16.625 C190.82,13.4516667 190.155,11.865 188.825,11.865 C187.705,11.865 186.853333,12.67 186.27,14.28 C185.826667,15.4933333 185.605,16.7883333 185.605,18.165 C185.605,21.105 186.491667,22.575 188.265,22.575 C189.968333,22.575 190.82,20.5916667 190.82,16.625 Z"
                id="Shape"></path>
            <path
                d="M205.625,12.775 C205.625,12.9383333 205.601667,13.195 205.555,13.545 C205.065,14.245 204.551667,14.595 204.015,14.595 C203.571667,14.595 203.175,14.3383333 202.825,13.825 C202.778333,12.775 202.405,12.25 201.705,12.25 C201.285,12.25 200.771667,13.3583333 200.165,15.575 C199.885,16.555 199.745,17.92 199.745,19.67 C199.745,21.3266667 199.826667,22.33 199.99,22.68 C200.176667,23.1233333 200.27,23.4266667 200.27,23.59 C200.27,23.9866667 200.089167,24.3075 199.7275,24.5525 C199.365833,24.7975 198.963333,24.92 198.52,24.92 C197.26,24.92 196.63,24.3366667 196.63,23.17 C196.63,23.0533333 196.659167,22.89 196.7175,22.68 C196.775833,22.47 196.805,22.3183333 196.805,22.225 C196.805,21.035 196.746667,19.2675 196.63,16.9225 C196.513333,14.5775 196.455,12.8216667 196.455,11.655 C196.455,10.605 197.085,10.08 198.345,10.08 C199.091667,10.08 199.605,10.3016667 199.885,10.745 C200.538333,10.0216667 201.273333,9.66 202.09,9.66 C202.65,9.66 203.186667,9.81166667 203.7,10.115 C204.05,10.3016667 204.458333,10.7041667 204.925,11.3225 C205.391667,11.9408333 205.625,12.425 205.625,12.775 Z"
                id="Path"></path>
            <path
                d="M218.75,17.92 C218.75,20.02 218.225,21.8166667 217.175,23.31 C215.961667,25.0133333 214.351667,25.865 212.345,25.865 C210.291667,25.865 208.74,25.165 207.69,23.765 C206.733333,22.5283333 206.255,20.8483333 206.255,18.725 C206.255,16.625 206.78,14.6416667 207.83,12.775 C209.043333,10.5583333 210.618333,9.45 212.555,9.45 C213.161667,9.45 213.92,9.71833333 214.83,10.255 C217.443333,11.8183333 218.75,14.3733333 218.75,17.92 Z M215.67,17.85 C215.67,14.28 214.806667,12.495 213.08,12.495 C211.843333,12.495 210.91,13.2533333 210.28,14.77 C209.813333,15.9133333 209.58,17.2083333 209.58,18.655 C209.58,21.7583333 210.501667,23.31 212.345,23.31 C213.535,23.31 214.421667,22.6683333 215.005,21.385 C215.448333,20.405 215.67,19.2266667 215.67,17.85 Z"
                id="Shape"></path>
            <path
                d="M238.105,13.965 C238.105,16.065 237.72,18.235 236.95,20.475 C235.946667,23.415 234.616667,24.885 232.96,24.885 C231.396667,24.885 230.101667,23.9166667 229.075,21.98 C228.375,24.0333333 227.266667,25.06 225.75,25.06 C223.813333,25.06 222.401667,23.73 221.515,21.07 C220.908333,19.25 220.605,17.115 220.605,14.665 C220.605,13.125 220.663333,11.8766667 220.78,10.92 C221.106667,10.4066667 221.538333,10.15 222.075,10.15 C222.541667,10.15 223.014167,10.3016667 223.4925,10.605 C223.970833,10.9083333 224.21,11.27 224.21,11.69 C224.21,11.9933333 224.134167,12.4425 223.9825,13.0375 C223.830833,13.6325 223.755,14.0816667 223.755,14.385 C223.755,19.5183333 224.303333,22.085 225.4,22.085 C226.543333,22.085 227.29,20.6616667 227.64,17.815 C227.756667,16.7416667 227.815,14.8633333 227.815,12.18 C227.815,11.2933333 228.328333,10.85 229.355,10.85 C230.498333,10.85 231.07,11.4916667 231.07,12.775 C231.07,12.8916667 231.0525,13.055 231.0175,13.265 C230.9825,13.475 230.965,13.6266667 230.965,13.72 L230.965,17.675 C230.965,20.615 231.501667,22.085 232.575,22.085 C233.485,22.085 234.173333,21.0116667 234.64,18.865 C234.99,17.3716667 235.165,15.9133333 235.165,14.49 C235.165,13.2766667 235.106667,12.565 234.99,12.355 C234.966667,12.3083333 234.838333,12.1683333 234.605,11.935 C234.465,11.7483333 234.395,11.5733333 234.395,11.41 C234.395,10.99 234.581667,10.6108333 234.955,10.2725 C235.328333,9.93416667 235.725,9.765 236.145,9.765 C236.775,9.765 237.276667,10.325 237.65,11.445 C237.953333,12.3083333 238.105,13.1483333 238.105,13.965 Z"
                id="Path"></path>
            <path
                d="M251.58,21.28 C251.58,22.3766667 251.113333,23.3333333 250.18,24.15 C249.153333,25.0366667 247.776667,25.48 246.05,25.48 C245.303333,25.5033333 244.498333,25.3516667 243.635,25.025 C240.835,23.975 239.435,23.1233333 239.435,22.47 C239.435,21.4433333 240.17,20.93 241.64,20.93 C241.85,20.93 242.071667,20.9416667 242.305,20.965 C242.375,21.665 242.935,22.225 243.985,22.645 C244.895,23.0183333 245.77,23.17 246.61,23.1 C247.286667,23.0533333 247.625,22.8083333 247.625,22.365 C247.625,22.295 247.6075,22.19 247.5725,22.05 C247.5375,21.91 247.52,21.7991667 247.52,21.7175 C247.52,21.6358333 247.076667,21.455 246.19,21.175 C245.186667,20.8716667 244.626667,20.6966667 244.51,20.65 C241.85,19.0633333 240.52,17.15 240.52,14.91 C240.52,13.5566667 240.905,12.3083333 241.675,11.165 C242.538333,9.905 243.611667,9.275 244.895,9.275 C245.851667,9.275 246.9425,9.64833333 248.1675,10.395 C249.3925,11.1416667 250.145,11.9466667 250.425,12.81 C250.611667,13.4166667 250.705,13.9183333 250.705,14.315 C250.705,14.735 250.646667,15.085 250.53,15.365 C250.39,15.715 250.25,16.065 250.11,16.415 C249.666667,16.7183333 249.223333,16.87 248.78,16.87 C248.546667,16.87 248.155833,16.7241667 247.6075,16.4325 C247.059167,16.1408333 246.785,15.89 246.785,15.68 C246.785,15.5866667 246.925,15.2833333 247.205,14.77 C247.368333,14.4666667 247.45,14.21 247.45,14 C247.45,12.6 246.901667,11.9 245.805,11.9 C245.151667,11.9 244.65,12.32 244.3,13.16 C244.043333,13.8133333 243.915,14.5133333 243.915,15.26 C243.915,16.1933333 244.58,17.0333333 245.91,17.78 C247.123333,18.3166667 248.348333,18.865 249.585,19.425 C250.915,20.0316667 251.58,20.65 251.58,21.28 Z"
                id="Path"></path>
            <path
                d="M264.32,21.735 C264.32,22.9016667 263.526667,23.8116667 261.94,24.465 C260.703333,24.9783333 259.408333,25.235 258.055,25.235 C254.461667,25.235 252.665,23.1933333 252.665,19.11 C252.665,17.43 253.073333,15.5633333 253.89,13.51 C254.893333,10.99 256.106667,9.73 257.53,9.73 C258.813333,9.73 260.195833,10.3016667 261.6775,11.445 C263.159167,12.5883333 263.9,13.7783333 263.9,15.015 C263.9,16.555 263.211667,17.78 261.835,18.69 C260.621667,19.5066667 259.175,19.915 257.495,19.915 C257.168333,19.915 256.643333,19.7166667 255.92,19.32 C256.013333,21.5366667 256.666667,22.645 257.88,22.645 C258.906667,22.645 259.915833,22.3533333 260.9075,21.77 C261.899167,21.1866667 262.535,20.895 262.815,20.895 C263.818333,20.895 264.32,21.175 264.32,21.735 Z M260.505,15.12 C260.505,14.5366667 260.335833,13.9825 259.9975,13.4575 C259.659167,12.9325 259.21,12.67 258.65,12.67 C257.88,12.67 257.285,13.0083333 256.865,13.685 C256.515,14.2683333 256.34,14.9566667 256.34,15.75 C256.34,16.1933333 256.491667,16.555 256.795,16.835 C257.098333,17.115 257.483333,17.255 257.95,17.255 C259.653333,17.255 260.505,16.5433333 260.505,15.12 Z"
                id="Shape"></path>
            <path
                d="M275.31,12.775 C275.31,12.9383333 275.286667,13.195 275.24,13.545 C274.75,14.245 274.236667,14.595 273.7,14.595 C273.256667,14.595 272.86,14.3383333 272.51,13.825 C272.463333,12.775 272.09,12.25 271.39,12.25 C270.97,12.25 270.456667,13.3583333 269.85,15.575 C269.57,16.555 269.43,17.92 269.43,19.67 C269.43,21.3266667 269.511667,22.33 269.675,22.68 C269.861667,23.1233333 269.955,23.4266667 269.955,23.59 C269.955,23.9866667 269.774167,24.3075 269.4125,24.5525 C269.050833,24.7975 268.648333,24.92 268.205,24.92 C266.945,24.92 266.315,24.3366667 266.315,23.17 C266.315,23.0533333 266.344167,22.89 266.4025,22.68 C266.460833,22.47 266.49,22.3183333 266.49,22.225 C266.49,21.035 266.431667,19.2675 266.315,16.9225 C266.198333,14.5775 266.14,12.8216667 266.14,11.655 C266.14,10.605 266.77,10.08 268.03,10.08 C268.776667,10.08 269.29,10.3016667 269.57,10.745 C270.223333,10.0216667 270.958333,9.66 271.775,9.66 C272.335,9.66 272.871667,9.81166667 273.385,10.115 C273.735,10.3016667 274.143333,10.7041667 274.61,11.3225 C275.076667,11.9408333 275.31,12.425 275.31,12.775 Z"
                id="Path"></path>
            <path
                d="M284.76,2.625 C284.76,2.78833333 284.701667,2.96333333 284.585,3.15 C284.421667,3.40666667 284.316667,3.57 284.27,3.64 C283.733333,4.97 283.336667,6.66166667 283.08,8.715 C282.963333,9.43833333 282.788333,11.1883333 282.555,13.965 C282.555,14.0816667 282.525833,14.3091667 282.4675,14.6475 C282.409167,14.9858333 282.38,15.2483333 282.38,15.435 C282.38,16.0416667 282.508333,16.8466667 282.765,17.85 C282.625,18.0366667 282.391667,18.2933333 282.065,18.62 C281.808333,18.69 281.528333,18.725 281.225,18.725 C280.758333,18.725 280.326667,18.6083333 279.93,18.375 C279.58,17.7216667 279.405,16.8816667 279.405,15.855 C279.405,14.7816667 279.620833,13.1891667 280.0525,11.0775 C280.484167,8.96583333 280.7,7.37333333 280.7,6.3 C280.7,5.88 280.624167,5.24416667 280.4725,4.3925 C280.320833,3.54083333 280.245,2.905 280.245,2.485 C280.245,2.25166667 280.268333,2.05333333 280.315,1.89 C280.898333,1.4 281.61,1.155 282.45,1.155 C282.94,1.155 283.43,1.27166667 283.92,1.505 C284.48,1.80833333 284.76,2.18166667 284.76,2.625 Z M283.745,22.54 C283.745,24.3133333 282.73,25.2 280.7,25.2 C280.326667,25.2 279.615,24.9783333 278.565,24.535 C278.285,24.0216667 278.145,23.5316667 278.145,23.065 C278.145,21.7116667 278.973333,21.035 280.63,21.035 C281.236667,21.035 281.855,21.1516667 282.485,21.385 C283.325,21.6883333 283.745,22.0733333 283.745,22.54 Z"
                id="Shape"></path>
        </g>
        <path
            d="M46.6303036,90.7923845 C50.4853036,89.9293845 54.3413036,89.0643845 58.5873036,88.1133845 C58.3043036,90.7613845 56.7323036,92.2233845 54.8973036,92.8293845 C49.4513036,94.6263845 43.9523036,96.3723845 38.3513036,97.5543845 C35.1423036,98.2303845 33.4563036,95.9903845 34.4243036,92.8753845 C36.0403036,87.6773845 37.9243036,82.5613845 39.7013036,77.4133845 C39.8053036,77.1123845 39.8883036,76.7063845 40.1153036,76.5643845 C40.8423036,76.1083845 41.6333036,75.7523845 42.3993036,75.3583845 C42.7223036,76.0193845 43.3873036,76.7253845 43.3073036,77.3343845 C43.0403036,79.3883845 42.5123036,81.4093845 42.0793036,83.4413845 C41.8513036,84.5073845 41.6143036,85.5703845 42.0343036,87.1453845 C43.2603036,86.0323845 44.5393036,84.9693845 45.7073036,83.7983845 C69.4583036,59.9823845 74.5553036,24.2893845 58.3603036,-5.34061549 C56.2903036,-9.12861549 53.7513036,-12.6596155 51.4523036,-16.3236155 C50.6513036,-17.6006155 49.9173036,-18.9196155 49.1523036,-20.2186155 C49.3893036,-20.4886155 49.6273036,-20.7586155 49.8643036,-21.0286155 C50.7743036,-20.6926155 51.9413036,-20.6056155 52.5493036,-19.9776155 C54.6603036,-17.7956155 56.7633036,-15.5606155 58.5413036,-13.1076155 C76.5453036,11.7303845 77.2453036,46.2263845 60.0853036,72.9133845 C56.8123036,78.0023845 52.6023036,82.4903845 48.7923036,87.2303845 C48.0093036,88.2063845 47.0823036,89.0663845 46.2213036,89.9803845 C46.3583036,90.2513845 46.4943036,90.5223845 46.6303036,90.7923845"
            id="Fill-16" fill="#1A1919"
            transform="translate(53.332720, 38.323347) rotate(110.000000) translate(-53.332720, -38.323347) "></path>
    </g>
</svg>