<?xml version="1.0" encoding="UTF-8"?>
<svg width="209px" height="25px" viewBox="0 0 209 25" version="1.1" xmlns="http://www.w3.org/2000/svg" xmlns:xlink="http://www.w3.org/1999/xlink">
    <title>Logo</title>
    <g id="Logo" stroke="none" stroke-width="1" fill="none" fill-rule="evenodd">
        <g id="Group-7" transform="translate(-32.000000, 8.000000)" stroke="#FFE234">
            <line x1="108.748848" y1="0.5" x2="0.251152074" y2="0.5" id="Path-11"></line>
            <line x1="109" y1="4.5" x2="1" y2="4.5" id="Path-13"></line>
            <line x1="109" y1="8.5" x2="1" y2="8.5" id="Path-13"></line>
        </g>
        <path d="M91.047737,20 L91.047737,19.65 C89.372737,19.45 88.822737,19.075 88.822737,17.725 L88.822737,12.4 L90.272737,12.4 L94.047737,18.45 C94.372737,19.025 94.572737,19.45 94.572737,20 L100.622737,20 L100.622737,19.65 C100.072737,19.525 98.822737,18.75 98.197737,17.75 L94.372737,11.9 C96.697737,11.15 97.972737,9.55 97.972737,7.35 C97.972737,4.175 95.322737,2.3 90.747737,2.3 L82.722737,2.3 L82.722737,2.65 C84.422737,2.85 84.947737,3.25 84.947737,4.575 L84.947737,17.725 C84.947737,19.05 84.422737,19.45 82.722737,19.65 L82.722737,20 L91.047737,20 Z M89.772737,11.7 L88.822737,11.7 L88.822737,3 L89.772737,3 C92.622737,3 93.897737,4.975 93.897737,7.35 C93.897737,9.65 92.572737,11.7 89.772737,11.7 Z M112.772737,20.375 C113.522737,20.375 114.947737,20.125 115.822737,17.925 L115.497737,17.8 C115.147737,18.475 114.772737,18.725 114.422737,18.725 C113.947737,18.725 113.672737,18.3 113.672737,17.575 L113.672737,6.9 L113.322737,6.9 L108.522737,8.425 L108.522737,8.775 C109.397737,8.725 109.947737,9.05 109.947737,10.275 L109.947737,16.875 C109.172737,17.625 108.497737,17.975 107.572737,17.975 C106.422737,17.975 105.697737,17.175 105.697737,15.775 L105.697737,6.9 L105.347737,6.9 L100.547737,8.425 L100.547737,8.775 C101.422737,8.725 101.972737,9.05 101.972737,10.275 L101.972737,16.05 C101.972737,18.625 103.197737,20.35 105.722737,20.35 C107.422737,20.35 108.747737,19.125 109.947737,17.6 C110.022737,19.55 111.672737,20.375 112.772737,20.375 Z M123.247737,20 L123.247737,19.65 C122.147737,19.425 121.822737,19.025 121.822737,18.05 L121.822737,10.45 C122.622737,9.65 123.372737,9.25 124.272737,9.25 C125.422737,9.25 126.097737,10.075 126.097737,11.475 L126.097737,18.05 C126.097737,19.025 125.772737,19.425 124.672737,19.65 L124.672737,20 L131.222737,20 L131.222737,19.65 C130.147737,19.425 129.797737,19.025 129.797737,18.05 L129.797737,11.25 C129.797737,8.65 128.597737,6.925 126.047737,6.925 C124.372737,6.925 123.022737,8.125 121.822737,9.675 L121.822737,6.9 L121.472737,6.9 L116.697737,8.425 L116.697737,8.775 C117.572737,8.725 118.122737,9.05 118.122737,10.275 L118.122737,18.05 C118.122737,19.025 117.772737,19.425 116.697737,19.65 L116.697737,20 L123.247737,20 Z M138.747737,20 L138.747737,19.65 C137.647737,19.425 137.322737,19.025 137.322737,18.05 L137.322737,10.45 C138.122737,9.65 138.872737,9.25 139.772737,9.25 C140.922737,9.25 141.597737,10.075 141.597737,11.475 L141.597737,18.05 C141.597737,19.025 141.272737,19.425 140.172737,19.65 L140.172737,20 L146.722737,20 L146.722737,19.65 C145.647737,19.425 145.297737,19.025 145.297737,18.05 L145.297737,11.25 C145.297737,8.65 144.097737,6.925 141.547737,6.925 C139.872737,6.925 138.522737,8.125 137.322737,9.675 L137.322737,6.9 L136.972737,6.9 L132.197737,8.425 L132.197737,8.775 C133.072737,8.725 133.622737,9.05 133.622737,10.275 L133.622737,18.05 C133.622737,19.025 133.272737,19.425 132.197737,19.65 L132.197737,20 L138.747737,20 Z M154.197737,20.375 C158.147737,20.375 160.897737,17.525 160.897737,13.375 C160.897737,9.55 158.247737,6.9 154.372737,6.9 C150.422737,6.9 147.697737,9.775 147.697737,13.925 C147.697737,17.75 150.347737,20.375 154.197737,20.375 Z M154.922737,19.675 C152.697737,19.675 151.422737,15 151.422737,11.75 C151.422737,9.3 152.172737,7.6 153.647737,7.6 C155.897737,7.6 157.147737,12.3 157.147737,15.6 C157.147737,18.05 156.397737,19.675 154.922737,19.675 Z" id="Runno" fill="#FFE234" fill-rule="nonzero"></path>
        <g id="Speed-Lines" transform="translate(167.000000, 8.000000)" stroke="#FFE234">
            <line x1="16.5" y1="4.5" x2="0.5" y2="4.5" id="Path-13"></line>
            <line x1="10.5" y1="0.5" x2="0.5" y2="0.5" id="Path-13"></line>
            <line x1="5.5" y1="8.5" x2="0.5" y2="8.5" id="Path-13"></line>
        </g>
        <g id="Cut-Triangle" transform="translate(189.000000, 2.000000)" stroke="#FFE234">
            <polyline id="Path-5" points="4 17.923395 0 21 0 1.05530818e-15 4 2.37503504"></polyline>
            <polyline id="Path-6" points="7 15 14 8.90564557 7 4"></polyline>
        </g>
    </g>
</svg>