<?xml version="1.0" encoding="UTF-8"?>
<svg width="387px" height="443px" viewBox="0 0 387 443" version="1.1" xmlns="http://www.w3.org/2000/svg" xmlns:xlink="http://www.w3.org/1999/xlink">
    <title>Sun</title>
    <defs>
        <linearGradient x1="50%" y1="28.0074949%" x2="50%" y2="80.1940422%" id="linearGradient-1">
            <stop stop-color="#FFF364" offset="0%"></stop>
            <stop stop-color="#FF34B1" offset="100%"></stop>
        </linearGradient>
        <path d="M598.034531,412.003388 C596.276417,417.420877 594.335426,422.755959 592.218843,428.001349 L135.781157,428.001349 C133.664574,422.755959 131.723583,417.420877 129.965469,412.003388 Z M606.076065,380.000877 C605.10148,385.398094 603.950826,390.734081 602.630263,396.002677 L125.369737,396.002677 C124.049174,390.734081 122.89852,385.398094 121.923935,380.000877 Z M609.487949,352.000938 C609.142393,357.383212 608.623748,362.718381 607.937523,368.000938 L120.062477,368.000938 C119.376252,362.718381 118.857607,357.383212 118.512051,352.000938 Z M609.800388,325.998432 C609.933041,329.315805 610,332.650083 610,336 C610,338.006413 609.97598,340.007215 609.928211,342.002136 L118.071789,342.002136 C118.02402,340.007215 118,338.006413 118,336 C118,332.650083 118.066959,329.315805 118.199612,325.998432 Z M607.669234,301.998083 C608.399468,307.279716 608.962026,312.61491 609.351362,317.998119 L118.648638,317.998119 C119.037974,312.61491 119.600532,307.279716 120.330766,301.998083 Z M603.122751,277.997924 C604.55365,283.918026 605.770417,289.921695 606.764393,296.000274 L121.235607,296.000274 C122.229583,289.921695 123.44635,283.918026 124.877249,277.997924 Z M364,90 C478.445426,90 574.637581,168.151543 602.120261,273.998425 L125.879739,273.998425 C153.362419,168.151543 249.554574,90 364,90 Z" id="path-2"></path>
        <filter x="-25.0%" y="-36.4%" width="150.0%" height="172.8%" filterUnits="objectBoundingBox" id="filter-3">
            <feMorphology radius="1" operator="dilate" in="SourceAlpha" result="shadowSpreadOuter1"></feMorphology>
            <feOffset dx="0" dy="0" in="shadowSpreadOuter1" result="shadowOffsetOuter1"></feOffset>
            <feGaussianBlur stdDeviation="40" in="shadowOffsetOuter1" result="shadowBlurOuter1"></feGaussianBlur>
            <feColorMatrix values="0 0 0 0 1   0 0 0 0 0.203921569   0 0 0 0 0.694117647  0 0 0 1 0" type="matrix" in="shadowBlurOuter1"></feColorMatrix>
        </filter>
    </defs>
    <g id="Sun" stroke="none" stroke-width="1" fill="none" fill-rule="evenodd">
        <g id="Combined-Shape">
            <use fill="black" fill-opacity="1" filter="url(#filter-3)" xlink:href="#path-2"></use>
            <use fill="url(#linearGradient-1)" fill-rule="evenodd" xlink:href="#path-2"></use>
        </g>
    </g>
</svg>