<?xml version="1.0" encoding="UTF-8"?>
<svg width="360px" height="113px" viewBox="0 0 360 113" version="1.1" xmlns="http://www.w3.org/2000/svg" xmlns:xlink="http://www.w3.org/1999/xlink">
    <title>Group 2</title>
    <defs>
        <path d="M270.50348,74.3516026 C283.97148,73.5396026 291.49448,64.8726026 297.53248,54.2366026 C303.74548,43.2936026 305.28548,31.6556026 302.57448,18.8386026 C298.85248,25.0416026 297.13948,32.1536026 290.40348,37.0876026 C290.69748,35.2966026 290.58548,34.3326026 290.99848,33.7256026 C295.28248,27.4186026 298.06348,20.4526026 300.23248,13.2006026 C300.50748,12.2826026 300.81348,11.3456026 301.28348,10.5196026 C302.56448,8.27260257 304.32948,7.85060257 306.50448,9.21160257 C307.04248,9.54760257 307.52948,9.98460257 307.97948,10.4366026 C312.24248,14.7216026 316.55148,18.9426026 322.44648,21.1826026 C316.95648,23.5706026 312.72148,21.0416026 308.65748,17.6176026 C308.65748,23.2806026 309.09548,28.5426026 308.57448,33.7066026 C307.04348,48.8856026 300.76348,61.7486026 288.30448,70.9336026 C285.06048,73.3246026 280.92548,74.6706026 277.02148,75.9496026 C274.22548,76.8656026 273.36848,76.2776026 270.50348,74.3516026" id="path-1"></path>
        <filter x="-28.9%" y="-22.1%" width="157.8%" height="144.2%" filterUnits="objectBoundingBox" id="filter-2">
            <feOffset dx="0" dy="0" in="SourceAlpha" result="shadowOffsetOuter1"></feOffset>
            <feGaussianBlur stdDeviation="5" in="shadowOffsetOuter1" result="shadowBlurOuter1"></feGaussianBlur>
            <feColorMatrix values="0 0 0 0 0   0 0 0 0 0   0 0 0 0 0  0 0 0 0.5 0" type="matrix" in="shadowBlurOuter1"></feColorMatrix>
        </filter>
        <path d="M14.43,2.22 C14.43,2.56 14.325,2.855 14.115,3.105 C13.905,3.355 13.64,3.48 13.32,3.48 C13.14,3.48 12.805,3.395 12.315,3.225 C11.825,3.055 11.42,2.97 11.1,2.97 C10.24,2.97 9.55,2.97 9.03,2.97 C8.73,2.97 8.565,2.995 8.535,3.045 C8.505,3.095 8.47,3.29 8.43,3.63 C8.35,4.13 8.23,4.88 8.07,5.88 C7.69,8.6 7.5,11.67 7.5,15.09 C7.5,17.41 7.77,19 8.31,19.86 L8.31,20.67 C7.93,20.87 7.63,20.97 7.41,20.97 C6.13,20.97 5.3,20.35 4.92,19.11 C4.74,18.51 4.65,17.36 4.65,15.66 C4.65,13.68 4.69,12.14 4.77,11.04 C4.79,10.56 4.9,9.41 5.1,7.59 C5.26,6.17 5.34,5.02 5.34,4.14 L5.31,3.27 C5.03,3.29 4.49,3.36 3.69,3.48 C3.03,3.58 2.49,3.63 2.07,3.63 C0.69,3.63 -9.57656462e-13,3.22 -9.57656462e-13,2.4 C-9.57656462e-13,2.06 0.1,1.86 0.3,1.8 C0.6,1.36 2.17,0.98 5.01,0.66 C7.21,0.42 8.99,0.3 10.35,0.3 C11.31,0.3 12.15,0.42 12.87,0.66 C13.91,1 14.43,1.52 14.43,2.22 Z" id="path-3"></path>
        <filter x="-104.0%" y="-72.6%" width="307.9%" height="245.1%" filterUnits="objectBoundingBox" id="filter-4">
            <feOffset dx="0" dy="0" in="SourceAlpha" result="shadowOffsetOuter1"></feOffset>
            <feGaussianBlur stdDeviation="5" in="shadowOffsetOuter1" result="shadowBlurOuter1"></feGaussianBlur>
            <feColorMatrix values="0 0 0 0 0   0 0 0 0 0   0 0 0 0 0  0 0 0 0.5 0" type="matrix" in="shadowBlurOuter1"></feColorMatrix>
        </filter>
        <path d="M20.04,10.14 C20.04,10.28 20.02,10.5 19.98,10.8 C19.56,11.4 19.12,11.7 18.66,11.7 C18.28,11.7 17.94,11.48 17.64,11.04 C17.6,10.14 17.28,9.69 16.68,9.69 C16.32,9.69 15.88,10.64 15.36,12.54 C15.12,13.38 15,14.55 15,16.05 C15,17.47 15.07,18.33 15.21,18.63 C15.37,19.01 15.45,19.27 15.45,19.41 C15.45,19.75 15.295,20.025 14.985,20.235 C14.675,20.445 14.33,20.55 13.95,20.55 C12.87,20.55 12.33,20.05 12.33,19.05 C12.33,18.95 12.355,18.81 12.405,18.63 C12.455,18.45 12.48,18.32 12.48,18.24 C12.48,17.22 12.43,15.705 12.33,13.695 C12.23,11.685 12.18,10.18 12.18,9.18 C12.18,8.28 12.72,7.83 13.8,7.83 C14.44,7.83 14.88,8.02 15.12,8.4 C15.68,7.78 16.31,7.47 17.01,7.47 C17.49,7.47 17.95,7.6 18.39,7.86 C18.69,8.02 19.04,8.365 19.44,8.895 C19.84,9.425 20.04,9.84 20.04,10.14 Z" id="path-5"></path>
        <filter x="-190.8%" y="-114.7%" width="481.7%" height="329.4%" filterUnits="objectBoundingBox" id="filter-6">
            <feOffset dx="0" dy="0" in="SourceAlpha" result="shadowOffsetOuter1"></feOffset>
            <feGaussianBlur stdDeviation="5" in="shadowOffsetOuter1" result="shadowBlurOuter1"></feGaussianBlur>
            <feColorMatrix values="0 0 0 0 0   0 0 0 0 0   0 0 0 0 0  0 0 0 0.5 0" type="matrix" in="shadowBlurOuter1"></feColorMatrix>
        </filter>
        <path d="M31.98,8.94 C31.8,9.94 31.63,10.93 31.47,11.91 C31.27,13.07 31.17,14.06 31.17,14.88 L31.17,23.04 C31.17,24.52 30.745,25.65 29.895,26.43 C29.045,27.21 27.88,27.6 26.4,27.6 C25.44,27.6 24.38,27.35 23.22,26.85 C21.84,26.27 21.15,25.57 21.15,24.75 C21.15,24.47 21.265,24.235 21.495,24.045 C21.725,23.855 21.98,23.76 22.26,23.76 C22.44,23.76 22.87,24.03 23.55,24.57 C24.23,25.11 25.01,25.38 25.89,25.38 C27.01,25.38 27.76,24.97 28.14,24.15 C28.42,23.59 28.56,22.69 28.56,21.45 C28.56,20.99 28.55,20.61 28.53,20.31 C27.87,20.75 27.13,20.97 26.31,20.97 C24.81,20.97 23.65,20.43 22.83,19.35 C22.09,18.37 21.72,17.12 21.72,15.6 C21.72,15.44 21.82,12.92 22.02,8.04 C22.62,7.78 23.1,7.65 23.46,7.65 C23.86,7.65 24.45,7.89 25.23,8.37 C24.75,9.57 24.51,11.97 24.51,15.57 C24.51,17.87 25.09,19.02 26.25,19.02 C27.11,19.02 27.77,18.3 28.23,16.86 C28.57,15.82 28.74,14.74 28.74,13.62 L28.74,9.96 C28.74,9.98 28.71,9.65 28.65,8.97 C29.47,8.57 30.08,8.37 30.48,8.37 C30.9,8.37 31.4,8.56 31.98,8.94 Z" id="path-7"></path>
        <filter x="-138.5%" y="-75.2%" width="377.0%" height="250.4%" filterUnits="objectBoundingBox" id="filter-8">
            <feOffset dx="0" dy="0" in="SourceAlpha" result="shadowOffsetOuter1"></feOffset>
            <feGaussianBlur stdDeviation="5" in="shadowOffsetOuter1" result="shadowBlurOuter1"></feGaussianBlur>
            <feColorMatrix values="0 0 0 0 0   0 0 0 0 0   0 0 0 0 0  0 0 0 0.5 0" type="matrix" in="shadowBlurOuter1"></feColorMatrix>
        </filter>
        <path d="M49.05,17.07 C49.05,17.69 48.58,18.42 47.64,19.26 C46.8,20.04 46.045,20.53 45.375,20.73 C44.705,20.93 44.07,21.03 43.47,21.03 C41.89,21.03 40.655,20.53 39.765,19.53 C38.875,18.53 38.43,17.24 38.43,15.66 C38.43,14.12 38.84,12.4 39.66,10.5 C40.64,8.22 41.78,7.08 43.08,7.08 C43.8,7.08 44.67,7.36 45.69,7.92 C46.77,8.54 47.4,9.16 47.58,9.78 C47.74,10.32 47.82,10.93 47.82,11.61 C47.82,12.23 47.69,12.93 47.43,13.71 C47.11,14.71 46.71,15.21 46.23,15.21 C45.89,15.21 45.57,15.11 45.27,14.91 C44.91,14.69 44.73,14.42 44.73,14.1 C44.73,14.08 44.82,13.85 45,13.41 C45.1,13.21 45.15,12.66 45.15,11.76 C45.15,11.02 45.12,10.54 45.06,10.32 C44.94,9.7 44.66,9.39 44.22,9.39 C43.24,9.39 42.48,10.24 41.94,11.94 C41.54,13.2 41.34,14.47 41.34,15.75 C41.34,17.89 42.02,18.96 43.38,18.96 C43.92,18.96 44.54,18.68 45.24,18.12 C45.88,17.6 46.33,17.07 46.59,16.53 C46.91,15.89 47.3,15.57 47.76,15.57 C48.06,15.57 48.35,15.745 48.63,16.095 C48.91,16.445 49.05,16.77 49.05,17.07 Z" id="path-9"></path>
        <filter x="-141.2%" y="-107.5%" width="382.5%" height="315.1%" filterUnits="objectBoundingBox" id="filter-10">
            <feOffset dx="0" dy="0" in="SourceAlpha" result="shadowOffsetOuter1"></feOffset>
            <feGaussianBlur stdDeviation="5" in="shadowOffsetOuter1" result="shadowBlurOuter1"></feGaussianBlur>
            <feColorMatrix values="0 0 0 0 0   0 0 0 0 0   0 0 0 0 0  0 0 0 0.5 0" type="matrix" in="shadowBlurOuter1"></feColorMatrix>
        </filter>
        <path d="M60.27,20.94 C59.89,21.32 59.39,21.51 58.77,21.51 C58.35,21.51 57.92,21.25 57.48,20.73 C57.5,18.97 57.51,17.61 57.51,16.65 C57.51,12.21 56.86,9.99 55.56,9.99 C54.22,9.99 53.55,11.78 53.55,15.36 C53.55,15.56 53.56,15.85 53.58,16.23 C53.58,16.61 53.58,16.9 53.58,17.1 C53.58,17.4 53.63,17.855 53.73,18.465 C53.83,19.075 53.88,19.53 53.88,19.83 C53.88,20.09 53.725,20.325 53.415,20.535 C53.105,20.745 52.82,20.85 52.56,20.85 C52.06,20.85 51.635,20.645 51.285,20.235 C50.935,19.825 50.76,19.37 50.76,18.87 L50.94,1.53 C50.94,1.47 50.93,1.39 50.91,1.29 C50.89,1.19 50.88,1.12 50.88,1.08 C50.88,0.36 51.28,-3.84597748e-14 52.08,-3.84597748e-14 C52.46,-3.84597748e-14 52.9,0.175 53.4,0.525 C53.9,0.875 54.15,1.23 54.15,1.59 C54.15,2.03 54.055,2.68 53.865,3.54 C53.675,4.4 53.58,5.05 53.58,5.49 C53.58,6.05 53.6,6.94 53.64,8.16 C54.08,7.9 54.45,7.77 54.75,7.77 C55.53,7.77 56.38,7.96 57.3,8.34 C58.48,8.84 59.3,9.65 59.76,10.77 C60.1,11.61 60.27,12.77 60.27,14.25 L60.27,20.94 Z" id="path-11"></path>
        <filter x="-157.7%" y="-69.7%" width="415.5%" height="239.5%" filterUnits="objectBoundingBox" id="filter-12">
            <feOffset dx="0" dy="0" in="SourceAlpha" result="shadowOffsetOuter1"></feOffset>
            <feGaussianBlur stdDeviation="5" in="shadowOffsetOuter1" result="shadowBlurOuter1"></feGaussianBlur>
            <feColorMatrix values="0 0 0 0 0   0 0 0 0 0   0 0 0 0 0  0 0 0 0.5 0" type="matrix" in="shadowBlurOuter1"></feColorMatrix>
        </filter>
        <path d="M72.72,15.36 C72.72,17.94 72.64,19.76 72.48,20.82 C72.38,21.44 71.96,21.75 71.22,21.75 C70.1,21.75 69.6,21.19 69.72,20.07 C68.72,20.55 67.68,20.79 66.6,20.79 C65.56,20.79 64.57,20.53 63.63,20.01 C62.51,19.39 61.95,18.6 61.95,17.64 C61.95,16.7 62.59,15.82 63.87,15 C65.03,14.26 66.12,13.89 67.14,13.89 L69.69,13.89 L69.69,13.17 C69.71,11.07 69.09,10.02 67.83,10.02 C66.25,10.02 65.46,10.76 65.46,12.24 C65.46,12.74 65.18,12.99 64.62,12.99 C64.28,12.99 63.925,12.835 63.555,12.525 C63.185,12.215 63,11.89 63,11.55 C63,10.43 63.4,9.51 64.2,8.79 C65,8.07 65.96,7.71 67.08,7.71 C70.84,7.71 72.72,10.26 72.72,15.36 Z M69.69,16.44 C69.69,16.04 69.39,15.84 68.79,15.84 C66.29,15.84 65.04,16.43 65.04,17.61 C65.04,18.25 65.59,18.57 66.69,18.57 C67.37,18.57 68.01,18.38 68.61,18 C69.33,17.58 69.69,17.06 69.69,16.44 Z" id="path-13"></path>
        <filter x="-139.3%" y="-106.8%" width="378.6%" height="313.7%" filterUnits="objectBoundingBox" id="filter-14">
            <feOffset dx="0" dy="0" in="SourceAlpha" result="shadowOffsetOuter1"></feOffset>
            <feGaussianBlur stdDeviation="5" in="shadowOffsetOuter1" result="shadowBlurOuter1"></feGaussianBlur>
            <feColorMatrix values="0 0 0 0 0   0 0 0 0 0   0 0 0 0 0  0 0 0 0.5 0" type="matrix" in="shadowBlurOuter1"></feColorMatrix>
        </filter>
        <path d="M85.8,20.25 C85.5,20.71 85.13,20.94 84.69,20.94 C84.35,20.94 83.79,20.74 83.01,20.34 L83.01,19.98 C83.01,19.54 83.025,18.89 83.055,18.03 C83.085,17.17 83.1,16.54 83.1,16.14 C83.1,11.86 82.46,9.72 81.18,9.72 C80.82,9.72 80.41,10 79.95,10.56 C78.53,12.28 77.82,14.35 77.82,16.77 C77.82,17.11 77.885,17.615 78.015,18.285 C78.145,18.955 78.21,19.46 78.21,19.8 C78.21,20.08 78.08,20.31 77.82,20.49 C77.56,20.67 77.28,20.76 76.98,20.76 C75.78,20.76 75.18,20 75.18,18.48 L75.18,12.21 C75.18,12.05 75.2,11.815 75.24,11.505 C75.28,11.195 75.3,10.96 75.3,10.8 C75.3,10.56 75.265,10.21 75.195,9.75 C75.125,9.29 75.09,8.95 75.09,8.73 C75.09,8.41 75.275,8.105 75.645,7.815 C76.015,7.525 76.35,7.38 76.65,7.38 C77.09,7.38 77.54,7.63 78,8.13 L77.91,9.33 C78.65,8.15 79.56,7.56 80.64,7.56 C81.34,7.56 82.08,7.8 82.86,8.28 C83.64,8.76 84.21,9.3 84.57,9.9 C85.39,11.42 85.8,13.42 85.8,15.9 L85.8,20.25 Z" id="path-15"></path>
        <filter x="-140.1%" y="-110.6%" width="380.1%" height="321.2%" filterUnits="objectBoundingBox" id="filter-16">
            <feOffset dx="0" dy="0" in="SourceAlpha" result="shadowOffsetOuter1"></feOffset>
            <feGaussianBlur stdDeviation="5" in="shadowOffsetOuter1" result="shadowBlurOuter1"></feGaussianBlur>
            <feColorMatrix values="0 0 0 0 0   0 0 0 0 0   0 0 0 0 0  0 0 0 0.5 0" type="matrix" in="shadowBlurOuter1"></feColorMatrix>
        </filter>
        <path d="M98.22,11.55 C98.18,12.05 98.05,12.93 97.83,14.19 C97.63,15.29 97.53,16.17 97.53,16.83 C97.53,17.43 97.56,18.33 97.62,19.53 C97.68,20.73 97.71,21.63 97.71,22.23 C97.71,23.47 97.59,24.39 97.35,24.99 C97.07,25.75 96.54,26.365 95.76,26.835 C94.98,27.305 94.17,27.54 93.33,27.54 C92.45,27.54 91.36,27.3 90.06,26.82 C88.5,26.26 87.72,25.64 87.72,24.96 C87.72,24.08 88.13,23.64 88.95,23.64 C89.33,23.64 89.59,23.75 89.73,23.97 C89.99,24.37 90.165,24.61 90.255,24.69 C90.345,24.77 90.67,24.865 91.23,24.975 C91.79,25.085 92.18,25.14 92.4,25.14 C94.2,25.14 95.1,24.01 95.1,21.75 C95.1,21.09 95.07,20.53 95.01,20.07 C94.15,20.81 93.12,21.18 91.92,21.18 C91.42,21.18 90.86,21.04 90.24,20.76 C89.62,20.48 89.15,20.15 88.83,19.77 C88.21,19.05 87.9,17.98 87.9,16.56 C87.9,14.86 88.29,12.99 89.07,10.95 C90.03,8.45 91.2,7.2 92.58,7.2 C93.42,7.2 94.22,7.59 94.98,8.37 C95.54,9.11 96.1,9.84 96.66,10.56 C96.82,10.76 97.07,10.94 97.41,11.1 C97.83,11.3 98.1,11.45 98.22,11.55 Z M95.19,13.35 C95.19,13.05 95.05,12.8 94.77,12.6 C94.65,10.76 94.01,9.84 92.85,9.84 C92.19,9.84 91.64,10.77 91.2,12.63 C90.88,14.05 90.72,15.28 90.72,16.32 C90.72,18.28 91.23,19.26 92.25,19.26 C93.21,19.26 93.97,18.48 94.53,16.92 C94.97,15.72 95.19,14.53 95.19,13.35 Z" id="path-17"></path>
        <filter x="-142.9%" y="-73.7%" width="385.7%" height="247.5%" filterUnits="objectBoundingBox" id="filter-18">
            <feOffset dx="0" dy="0" in="SourceAlpha" result="shadowOffsetOuter1"></feOffset>
            <feGaussianBlur stdDeviation="5" in="shadowOffsetOuter1" result="shadowBlurOuter1"></feGaussianBlur>
            <feColorMatrix values="0 0 0 0 0   0 0 0 0 0   0 0 0 0 0  0 0 0 0.5 0" type="matrix" in="shadowBlurOuter1"></feColorMatrix>
        </filter>
        <path d="M104.28,4.71 C104.28,5.15 104.13,5.51 103.83,5.79 C103.53,6.07 103.16,6.21 102.72,6.21 C102.2,6.21 101.715,6.03 101.265,5.67 C100.815,5.31 100.59,4.87 100.59,4.35 C100.59,3.91 100.745,3.55 101.055,3.27 C101.365,2.99 101.75,2.85 102.21,2.85 C102.75,2.85 103.23,3.025 103.65,3.375 C104.07,3.725 104.28,4.17 104.28,4.71 Z M104.01,8.91 C104.01,9.27 103.93,9.78 103.77,10.44 C103.61,11.1 103.53,11.61 103.53,11.97 L103.53,18.15 C103.53,18.53 103.64,19.13 103.86,19.95 C103.56,20.41 103.23,20.64 102.87,20.64 C101.61,20.64 100.92,20.01 100.8,18.75 C100.6,16.41 100.5,14.65 100.5,13.47 C100.5,11.49 100.58,9.83 100.74,8.49 C100.72,8.39 100.71,8.29 100.71,8.19 C100.71,7.83 100.99,7.65 101.55,7.65 C102.05,7.65 102.55,7.75 103.05,7.95 C103.69,8.17 104.01,8.49 104.01,8.91 Z" id="path-19"></path>
        <filter x="-396.8%" y="-84.3%" width="893.7%" height="268.6%" filterUnits="objectBoundingBox" id="filter-20">
            <feOffset dx="0" dy="0" in="SourceAlpha" result="shadowOffsetOuter1"></feOffset>
            <feGaussianBlur stdDeviation="5" in="shadowOffsetOuter1" result="shadowBlurOuter1"></feGaussianBlur>
            <feColorMatrix values="0 0 0 0 0   0 0 0 0 0   0 0 0 0 0  0 0 0 0.5 0" type="matrix" in="shadowBlurOuter1"></feColorMatrix>
        </filter>
        <path d="M116.4,20.25 C116.1,20.71 115.73,20.94 115.29,20.94 C114.95,20.94 114.39,20.74 113.61,20.34 L113.61,19.98 C113.61,19.54 113.625,18.89 113.655,18.03 C113.685,17.17 113.7,16.54 113.7,16.14 C113.7,11.86 113.06,9.72 111.78,9.72 C111.42,9.72 111.01,10 110.55,10.56 C109.13,12.28 108.42,14.35 108.42,16.77 C108.42,17.11 108.485,17.615 108.615,18.285 C108.745,18.955 108.81,19.46 108.81,19.8 C108.81,20.08 108.68,20.31 108.42,20.49 C108.16,20.67 107.88,20.76 107.58,20.76 C106.38,20.76 105.78,20 105.78,18.48 L105.78,12.21 C105.78,12.05 105.8,11.815 105.84,11.505 C105.88,11.195 105.9,10.96 105.9,10.8 C105.9,10.56 105.865,10.21 105.795,9.75 C105.725,9.29 105.69,8.95 105.69,8.73 C105.69,8.41 105.875,8.105 106.245,7.815 C106.615,7.525 106.95,7.38 107.25,7.38 C107.69,7.38 108.14,7.63 108.6,8.13 L108.51,9.33 C109.25,8.15 110.16,7.56 111.24,7.56 C111.94,7.56 112.68,7.8 113.46,8.28 C114.24,8.76 114.81,9.3 115.17,9.9 C115.99,11.42 116.4,13.42 116.4,15.9 L116.4,20.25 Z" id="path-21"></path>
        <filter x="-140.1%" y="-110.6%" width="380.1%" height="321.2%" filterUnits="objectBoundingBox" id="filter-22">
            <feOffset dx="0" dy="0" in="SourceAlpha" result="shadowOffsetOuter1"></feOffset>
            <feGaussianBlur stdDeviation="5" in="shadowOffsetOuter1" result="shadowBlurOuter1"></feGaussianBlur>
            <feColorMatrix values="0 0 0 0 0   0 0 0 0 0   0 0 0 0 0  0 0 0 0.5 0" type="matrix" in="shadowBlurOuter1"></feColorMatrix>
        </filter>
        <path d="M128.82,11.55 C128.78,12.05 128.65,12.93 128.43,14.19 C128.23,15.29 128.13,16.17 128.13,16.83 C128.13,17.43 128.16,18.33 128.22,19.53 C128.28,20.73 128.31,21.63 128.31,22.23 C128.31,23.47 128.19,24.39 127.95,24.99 C127.67,25.75 127.14,26.365 126.36,26.835 C125.58,27.305 124.77,27.54 123.93,27.54 C123.05,27.54 121.96,27.3 120.66,26.82 C119.1,26.26 118.32,25.64 118.32,24.96 C118.32,24.08 118.73,23.64 119.55,23.64 C119.93,23.64 120.19,23.75 120.33,23.97 C120.59,24.37 120.765,24.61 120.855,24.69 C120.945,24.77 121.27,24.865 121.83,24.975 C122.39,25.085 122.78,25.14 123,25.14 C124.8,25.14 125.7,24.01 125.7,21.75 C125.7,21.09 125.67,20.53 125.61,20.07 C124.75,20.81 123.72,21.18 122.52,21.18 C122.02,21.18 121.46,21.04 120.84,20.76 C120.22,20.48 119.75,20.15 119.43,19.77 C118.81,19.05 118.5,17.98 118.5,16.56 C118.5,14.86 118.89,12.99 119.67,10.95 C120.63,8.45 121.8,7.2 123.18,7.2 C124.02,7.2 124.82,7.59 125.58,8.37 C126.14,9.11 126.7,9.84 127.26,10.56 C127.42,10.76 127.67,10.94 128.01,11.1 C128.43,11.3 128.7,11.45 128.82,11.55 Z M125.79,13.35 C125.79,13.05 125.65,12.8 125.37,12.6 C125.25,10.76 124.61,9.84 123.45,9.84 C122.79,9.84 122.24,10.77 121.8,12.63 C121.48,14.05 121.32,15.28 121.32,16.32 C121.32,18.28 121.83,19.26 122.85,19.26 C123.81,19.26 124.57,18.48 125.13,16.92 C125.57,15.72 125.79,14.53 125.79,13.35 Z" id="path-23"></path>
        <filter x="-142.9%" y="-73.7%" width="385.7%" height="247.5%" filterUnits="objectBoundingBox" id="filter-24">
            <feOffset dx="0" dy="0" in="SourceAlpha" result="shadowOffsetOuter1"></feOffset>
            <feGaussianBlur stdDeviation="5" in="shadowOffsetOuter1" result="shadowBlurOuter1"></feGaussianBlur>
            <feColorMatrix values="0 0 0 0 0   0 0 0 0 0   0 0 0 0 0  0 0 0 0.5 0" type="matrix" in="shadowBlurOuter1"></feColorMatrix>
        </filter>
        <path d="M143.01,9.72 C143.01,10.26 142.18,10.64 140.52,10.86 C140.48,11.3 140.46,12.3 140.46,13.86 L140.46,15.84 C140.46,16.24 140.525,16.83 140.655,17.61 C140.785,18.39 140.85,18.97 140.85,19.35 C140.85,19.67 140.69,19.955 140.37,20.205 C140.05,20.455 139.73,20.58 139.41,20.58 C138.91,20.58 138.49,20.15 138.15,19.29 C137.89,18.63 137.76,17.99 137.76,17.37 L137.76,11.01 C136.84,10.87 136.31,10.78 136.17,10.74 C135.65,10.58 135.39,10.35 135.39,10.05 C135.39,9.97 135.41,9.88 135.45,9.78 C135.97,9.04 136.55,8.67 137.19,8.67 C137.23,8.67 137.29,8.67 137.37,8.67 C137.45,8.69 137.51,8.7 137.55,8.7 C137.97,8.7 138.17,8.21 138.15,7.23 L138.15,5.04 C138.03,4.82 137.97,4.63 137.97,4.47 C137.97,4.21 138.125,3.975 138.435,3.765 C138.745,3.555 139.04,3.45 139.32,3.45 C139.74,3.45 140.14,3.645 140.52,4.035 C140.9,4.425 141.09,4.84 141.09,5.28 C141.09,5.76 141.015,6.235 140.865,6.705 C140.715,7.175 140.65,7.66 140.67,8.16 L140.67,8.28 C142.23,8.44 143.01,8.92 143.01,9.72 Z" id="path-25"></path>
        <filter x="-196.9%" y="-87.6%" width="493.7%" height="275.1%" filterUnits="objectBoundingBox" id="filter-26">
            <feOffset dx="0" dy="0" in="SourceAlpha" result="shadowOffsetOuter1"></feOffset>
            <feGaussianBlur stdDeviation="5" in="shadowOffsetOuter1" result="shadowBlurOuter1"></feGaussianBlur>
            <feColorMatrix values="0 0 0 0 0   0 0 0 0 0   0 0 0 0 0  0 0 0 0.5 0" type="matrix" in="shadowBlurOuter1"></feColorMatrix>
        </filter>
        <path d="M153.63,20.94 C153.25,21.32 152.75,21.51 152.13,21.51 C151.71,21.51 151.28,21.25 150.84,20.73 C150.86,18.97 150.87,17.61 150.87,16.65 C150.87,12.21 150.22,9.99 148.92,9.99 C147.58,9.99 146.91,11.78 146.91,15.36 C146.91,15.56 146.92,15.85 146.94,16.23 C146.94,16.61 146.94,16.9 146.94,17.1 C146.94,17.4 146.99,17.855 147.09,18.465 C147.19,19.075 147.24,19.53 147.24,19.83 C147.24,20.09 147.085,20.325 146.775,20.535 C146.465,20.745 146.18,20.85 145.92,20.85 C145.42,20.85 144.995,20.645 144.645,20.235 C144.295,19.825 144.12,19.37 144.12,18.87 L144.3,1.53 C144.3,1.47 144.29,1.39 144.27,1.29 C144.25,1.19 144.24,1.12 144.24,1.08 C144.24,0.36 144.64,-4.71444253e-14 145.44,-4.71444253e-14 C145.82,-4.71444253e-14 146.26,0.175 146.76,0.525 C147.26,0.875 147.51,1.23 147.51,1.59 C147.51,2.03 147.415,2.68 147.225,3.54 C147.035,4.4 146.94,5.05 146.94,5.49 C146.94,6.05 146.96,6.94 147,8.16 C147.44,7.9 147.81,7.77 148.11,7.77 C148.89,7.77 149.74,7.96 150.66,8.34 C151.84,8.84 152.66,9.65 153.12,10.77 C153.46,11.61 153.63,12.77 153.63,14.25 L153.63,20.94 Z" id="path-27"></path>
        <filter x="-157.7%" y="-69.7%" width="415.5%" height="239.5%" filterUnits="objectBoundingBox" id="filter-28">
            <feOffset dx="0" dy="0" in="SourceAlpha" result="shadowOffsetOuter1"></feOffset>
            <feGaussianBlur stdDeviation="5" in="shadowOffsetOuter1" result="shadowBlurOuter1"></feGaussianBlur>
            <feColorMatrix values="0 0 0 0 0   0 0 0 0 0   0 0 0 0 0  0 0 0 0.5 0" type="matrix" in="shadowBlurOuter1"></feColorMatrix>
        </filter>
        <path d="M165,17.82 C165,18.82 164.32,19.6 162.96,20.16 C161.9,20.6 160.79,20.82 159.63,20.82 C156.55,20.82 155.01,19.07 155.01,15.57 C155.01,14.13 155.36,12.53 156.06,10.77 C156.92,8.61 157.96,7.53 159.18,7.53 C160.28,7.53 161.465,8.02 162.735,9 C164.005,9.98 164.64,11 164.64,12.06 C164.64,13.38 164.05,14.43 162.87,15.21 C161.83,15.91 160.59,16.26 159.15,16.26 C158.87,16.26 158.42,16.09 157.8,15.75 C157.88,17.65 158.44,18.6 159.48,18.6 C160.36,18.6 161.225,18.35 162.075,17.85 C162.925,17.35 163.47,17.1 163.71,17.1 C164.57,17.1 165,17.34 165,17.82 Z M161.73,12.15 C161.73,11.65 161.585,11.175 161.295,10.725 C161.005,10.275 160.62,10.05 160.14,10.05 C159.48,10.05 158.97,10.34 158.61,10.92 C158.31,11.42 158.16,12.01 158.16,12.69 C158.16,13.07 158.29,13.38 158.55,13.62 C158.81,13.86 159.14,13.98 159.54,13.98 C161,13.98 161.73,13.37 161.73,12.15 Z" id="path-29"></path>
        <filter x="-150.2%" y="-112.9%" width="400.3%" height="325.7%" filterUnits="objectBoundingBox" id="filter-30">
            <feOffset dx="0" dy="0" in="SourceAlpha" result="shadowOffsetOuter1"></feOffset>
            <feGaussianBlur stdDeviation="5" in="shadowOffsetOuter1" result="shadowBlurOuter1"></feGaussianBlur>
            <feColorMatrix values="0 0 0 0 0   0 0 0 0 0   0 0 0 0 0  0 0 0 0.5 0" type="matrix" in="shadowBlurOuter1"></feColorMatrix>
        </filter>
        <path d="M179.43,10.14 C179.43,10.28 179.41,10.5 179.37,10.8 C178.95,11.4 178.51,11.7 178.05,11.7 C177.67,11.7 177.33,11.48 177.03,11.04 C176.99,10.14 176.67,9.69 176.07,9.69 C175.71,9.69 175.27,10.64 174.75,12.54 C174.51,13.38 174.39,14.55 174.39,16.05 C174.39,17.47 174.46,18.33 174.6,18.63 C174.76,19.01 174.84,19.27 174.84,19.41 C174.84,19.75 174.685,20.025 174.375,20.235 C174.065,20.445 173.72,20.55 173.34,20.55 C172.26,20.55 171.72,20.05 171.72,19.05 C171.72,18.95 171.745,18.81 171.795,18.63 C171.845,18.45 171.87,18.32 171.87,18.24 C171.87,17.22 171.82,15.705 171.72,13.695 C171.62,11.685 171.57,10.18 171.57,9.18 C171.57,8.28 172.11,7.83 173.19,7.83 C173.83,7.83 174.27,8.02 174.51,8.4 C175.07,7.78 175.7,7.47 176.4,7.47 C176.88,7.47 177.34,7.6 177.78,7.86 C178.08,8.02 178.43,8.365 178.83,8.895 C179.23,9.425 179.43,9.84 179.43,10.14 Z" id="path-31"></path>
        <filter x="-190.8%" y="-114.7%" width="481.7%" height="329.4%" filterUnits="objectBoundingBox" id="filter-32">
            <feOffset dx="0" dy="0" in="SourceAlpha" result="shadowOffsetOuter1"></feOffset>
            <feGaussianBlur stdDeviation="5" in="shadowOffsetOuter1" result="shadowBlurOuter1"></feGaussianBlur>
            <feColorMatrix values="0 0 0 0 0   0 0 0 0 0   0 0 0 0 0  0 0 0 0.5 0" type="matrix" in="shadowBlurOuter1"></feColorMatrix>
        </filter>
        <path d="M190.65,9.75 C190.65,10.37 190.575,11.305 190.425,12.555 C190.275,13.805 190.2,14.75 190.2,15.39 C190.2,15.95 190.225,16.785 190.275,17.895 C190.325,19.005 190.35,19.83 190.35,20.37 C190.35,20.83 189.96,21.06 189.18,21.06 C188.38,21.06 187.87,20.67 187.65,19.89 C186.89,20.39 186.15,20.64 185.43,20.64 C184.85,20.64 184.19,20.485 183.45,20.175 C182.71,19.865 182.19,19.49 181.89,19.05 C181.31,18.21 181.02,16.86 181.02,15 C181.02,14.36 181.04,13.24 181.08,11.64 C181.14,10.22 181.16,9.11 181.14,8.31 C181.74,7.87 182.24,7.65 182.64,7.65 C183.6,7.65 184.08,8.12 184.08,9.06 C184.08,9.38 184.035,9.86 183.945,10.5 C183.855,11.14 183.81,11.62 183.81,11.94 L183.81,16.17 C183.81,16.65 183.94,17.15 184.2,17.67 C184.52,18.27 184.9,18.57 185.34,18.57 C186.2,18.57 186.84,18.02 187.26,16.92 C187.54,16.16 187.68,15.24 187.68,14.16 L187.68,10.56 C187.68,10.1 187.56,9.53 187.32,8.85 C187.82,8.39 188.3,8.16 188.76,8.16 C189.24,8.16 189.675,8.31 190.065,8.61 C190.455,8.91 190.65,9.29 190.65,9.75 Z" id="path-33"></path>
        <filter x="-155.8%" y="-111.9%" width="411.5%" height="323.7%" filterUnits="objectBoundingBox" id="filter-34">
            <feOffset dx="0" dy="0" in="SourceAlpha" result="shadowOffsetOuter1"></feOffset>
            <feGaussianBlur stdDeviation="5" in="shadowOffsetOuter1" result="shadowBlurOuter1"></feGaussianBlur>
            <feColorMatrix values="0 0 0 0 0   0 0 0 0 0   0 0 0 0 0  0 0 0 0.5 0" type="matrix" in="shadowBlurOuter1"></feColorMatrix>
        </filter>
        <path d="M203.52,20.25 C203.22,20.71 202.85,20.94 202.41,20.94 C202.07,20.94 201.51,20.74 200.73,20.34 L200.73,19.98 C200.73,19.54 200.745,18.89 200.775,18.03 C200.805,17.17 200.82,16.54 200.82,16.14 C200.82,11.86 200.18,9.72 198.9,9.72 C198.54,9.72 198.13,10 197.67,10.56 C196.25,12.28 195.54,14.35 195.54,16.77 C195.54,17.11 195.605,17.615 195.735,18.285 C195.865,18.955 195.93,19.46 195.93,19.8 C195.93,20.08 195.8,20.31 195.54,20.49 C195.28,20.67 195,20.76 194.7,20.76 C193.5,20.76 192.9,20 192.9,18.48 L192.9,12.21 C192.9,12.05 192.92,11.815 192.96,11.505 C193,11.195 193.02,10.96 193.02,10.8 C193.02,10.56 192.985,10.21 192.915,9.75 C192.845,9.29 192.81,8.95 192.81,8.73 C192.81,8.41 192.995,8.105 193.365,7.815 C193.735,7.525 194.07,7.38 194.37,7.38 C194.81,7.38 195.26,7.63 195.72,8.13 L195.63,9.33 C196.37,8.15 197.28,7.56 198.36,7.56 C199.06,7.56 199.8,7.8 200.58,8.28 C201.36,8.76 201.93,9.3 202.29,9.9 C203.11,11.42 203.52,13.42 203.52,15.9 L203.52,20.25 Z" id="path-35"></path>
        <filter x="-140.1%" y="-110.6%" width="380.1%" height="321.2%" filterUnits="objectBoundingBox" id="filter-36">
            <feOffset dx="0" dy="0" in="SourceAlpha" result="shadowOffsetOuter1"></feOffset>
            <feGaussianBlur stdDeviation="5" in="shadowOffsetOuter1" result="shadowBlurOuter1"></feGaussianBlur>
            <feColorMatrix values="0 0 0 0 0   0 0 0 0 0   0 0 0 0 0  0 0 0 0.5 0" type="matrix" in="shadowBlurOuter1"></feColorMatrix>
        </filter>
        <path d="M211.68,9.72 C211.68,10.26 210.85,10.64 209.19,10.86 C209.15,11.3 209.13,12.3 209.13,13.86 L209.13,15.84 C209.13,16.24 209.195,16.83 209.325,17.61 C209.455,18.39 209.52,18.97 209.52,19.35 C209.52,19.67 209.36,19.955 209.04,20.205 C208.72,20.455 208.4,20.58 208.08,20.58 C207.58,20.58 207.16,20.15 206.82,19.29 C206.56,18.63 206.43,17.99 206.43,17.37 L206.43,11.01 C205.51,10.87 204.98,10.78 204.84,10.74 C204.32,10.58 204.06,10.35 204.06,10.05 C204.06,9.97 204.08,9.88 204.12,9.78 C204.64,9.04 205.22,8.67 205.86,8.67 C205.9,8.67 205.96,8.67 206.04,8.67 C206.12,8.69 206.18,8.7 206.22,8.7 C206.64,8.7 206.84,8.21 206.82,7.23 L206.82,5.04 C206.7,4.82 206.64,4.63 206.64,4.47 C206.64,4.21 206.795,3.975 207.105,3.765 C207.415,3.555 207.71,3.45 207.99,3.45 C208.41,3.45 208.81,3.645 209.19,4.035 C209.57,4.425 209.76,4.84 209.76,5.28 C209.76,5.76 209.685,6.235 209.535,6.705 C209.385,7.175 209.32,7.66 209.34,8.16 L209.34,8.28 C210.9,8.44 211.68,8.92 211.68,9.72 Z" id="path-37"></path>
        <filter x="-196.9%" y="-87.6%" width="493.7%" height="275.1%" filterUnits="objectBoundingBox" id="filter-38">
            <feOffset dx="0" dy="0" in="SourceAlpha" result="shadowOffsetOuter1"></feOffset>
            <feGaussianBlur stdDeviation="5" in="shadowOffsetOuter1" result="shadowBlurOuter1"></feGaussianBlur>
            <feColorMatrix values="0 0 0 0 0   0 0 0 0 0   0 0 0 0 0  0 0 0 0.5 0" type="matrix" in="shadowBlurOuter1"></feColorMatrix>
        </filter>
        <path d="M216.75,4.71 C216.75,5.15 216.6,5.51 216.3,5.79 C216,6.07 215.63,6.21 215.19,6.21 C214.67,6.21 214.185,6.03 213.735,5.67 C213.285,5.31 213.06,4.87 213.06,4.35 C213.06,3.91 213.215,3.55 213.525,3.27 C213.835,2.99 214.22,2.85 214.68,2.85 C215.22,2.85 215.7,3.025 216.12,3.375 C216.54,3.725 216.75,4.17 216.75,4.71 Z M216.48,8.91 C216.48,9.27 216.4,9.78 216.24,10.44 C216.08,11.1 216,11.61 216,11.97 L216,18.15 C216,18.53 216.11,19.13 216.33,19.95 C216.03,20.41 215.7,20.64 215.34,20.64 C214.08,20.64 213.39,20.01 213.27,18.75 C213.07,16.41 212.97,14.65 212.97,13.47 C212.97,11.49 213.05,9.83 213.21,8.49 C213.19,8.39 213.18,8.29 213.18,8.19 C213.18,7.83 213.46,7.65 214.02,7.65 C214.52,7.65 215.02,7.75 215.52,7.95 C216.16,8.17 216.48,8.49 216.48,8.91 Z" id="path-39"></path>
        <filter x="-396.8%" y="-84.3%" width="893.7%" height="268.6%" filterUnits="objectBoundingBox" id="filter-40">
            <feOffset dx="0" dy="0" in="SourceAlpha" result="shadowOffsetOuter1"></feOffset>
            <feGaussianBlur stdDeviation="5" in="shadowOffsetOuter1" result="shadowBlurOuter1"></feGaussianBlur>
            <feColorMatrix values="0 0 0 0 0   0 0 0 0 0   0 0 0 0 0  0 0 0 0.5 0" type="matrix" in="shadowBlurOuter1"></feColorMatrix>
        </filter>
        <path d="M233.13,20.4 C232.45,20.82 231.93,21.03 231.57,21.03 C231.31,21.03 230.91,20.89 230.37,20.61 C230.37,20.29 230.38,19.74 230.4,18.96 C230.42,18.26 230.43,17.71 230.43,17.31 C230.43,11.99 229.99,9.33 229.11,9.33 C228.45,9.33 227.92,10.14 227.52,11.76 C227.22,12.94 227.07,14.03 227.07,15.03 L227.07,17.79 C227.07,17.93 227.115,18.135 227.205,18.405 C227.295,18.675 227.34,18.88 227.34,19.02 C227.34,19.34 227.17,19.625 226.83,19.875 C226.49,20.125 226.16,20.25 225.84,20.25 C225.5,20.25 225.16,20.08 224.82,19.74 C224.48,19.4 224.31,19.07 224.31,18.75 L224.31,13.17 C224.31,10.91 224.06,9.78 223.56,9.78 C223.48,9.78 223.31,9.97 223.05,10.35 C221.63,12.27 220.92,14.33 220.92,16.53 C220.92,16.85 220.96,17.315 221.04,17.925 C221.12,18.535 221.16,18.99 221.16,19.29 C221.16,19.69 221.035,20.02 220.785,20.28 C220.535,20.54 220.21,20.67 219.81,20.67 C219.35,20.67 218.98,20.51 218.7,20.19 C218.6,20.05 218.48,19.58 218.34,18.78 C218.22,18.04 218.16,17.53 218.16,17.25 L218.16,10.71 C218.16,10.23 218.28,9.59 218.52,8.79 C218.82,7.83 219.14,7.35 219.48,7.35 C219.88,7.35 220.24,7.505 220.56,7.815 C220.88,8.125 221.02,8.48 220.98,8.88 C221.56,7.92 222.31,7.44 223.23,7.44 C224.37,7.44 225.3,8.2 226.02,9.72 C226.4,8.82 226.74,8.2 227.04,7.86 C227.54,7.28 228.16,6.99 228.9,6.99 C229.64,6.99 230.39,7.38 231.15,8.16 C232.47,9.5 233.13,11.79 233.13,15.03 L233.13,20.4 Z" id="path-41"></path>
        <filter x="-100.2%" y="-106.8%" width="300.4%" height="313.7%" filterUnits="objectBoundingBox" id="filter-42">
            <feOffset dx="0" dy="0" in="SourceAlpha" result="shadowOffsetOuter1"></feOffset>
            <feGaussianBlur stdDeviation="5" in="shadowOffsetOuter1" result="shadowBlurOuter1"></feGaussianBlur>
            <feColorMatrix values="0 0 0 0 0   0 0 0 0 0   0 0 0 0 0  0 0 0 0.5 0" type="matrix" in="shadowBlurOuter1"></feColorMatrix>
        </filter>
        <path d="M245.19,17.82 C245.19,18.82 244.51,19.6 243.15,20.16 C242.09,20.6 240.98,20.82 239.82,20.82 C236.74,20.82 235.2,19.07 235.2,15.57 C235.2,14.13 235.55,12.53 236.25,10.77 C237.11,8.61 238.15,7.53 239.37,7.53 C240.47,7.53 241.655,8.02 242.925,9 C244.195,9.98 244.83,11 244.83,12.06 C244.83,13.38 244.24,14.43 243.06,15.21 C242.02,15.91 240.78,16.26 239.34,16.26 C239.06,16.26 238.61,16.09 237.99,15.75 C238.07,17.65 238.63,18.6 239.67,18.6 C240.55,18.6 241.415,18.35 242.265,17.85 C243.115,17.35 243.66,17.1 243.9,17.1 C244.76,17.1 245.19,17.34 245.19,17.82 Z M241.92,12.15 C241.92,11.65 241.775,11.175 241.485,10.725 C241.195,10.275 240.81,10.05 240.33,10.05 C239.67,10.05 239.16,10.34 238.8,10.92 C238.5,11.42 238.35,12.01 238.35,12.69 C238.35,13.07 238.48,13.38 238.74,13.62 C239,13.86 239.33,13.98 239.73,13.98 C241.19,13.98 241.92,13.37 241.92,12.15 Z" id="path-43"></path>
        <filter x="-150.2%" y="-112.9%" width="400.3%" height="325.7%" filterUnits="objectBoundingBox" id="filter-44">
            <feOffset dx="0" dy="0" in="SourceAlpha" result="shadowOffsetOuter1"></feOffset>
            <feGaussianBlur stdDeviation="5" in="shadowOffsetOuter1" result="shadowBlurOuter1"></feGaussianBlur>
            <feColorMatrix values="0 0 0 0 0   0 0 0 0 0   0 0 0 0 0  0 0 0 0.5 0" type="matrix" in="shadowBlurOuter1"></feColorMatrix>
        </filter>
    </defs>
    <g id="Page-1" stroke="none" stroke-width="1" fill="none" fill-rule="evenodd">
        <g id="change-runtime" transform="translate(0.000000, 14.000000)">
            <g id="Group-2" transform="translate(9.580102, -0.000000)">
                <g id="Fill-33" transform="translate(296.474980, 42.403794) scale(-1, 1) rotate(-150.000000) translate(-296.474980, -42.403794) ">
                    <use fill="black" fill-opacity="1" filter="url(#filter-2)" xlink:href="#path-1"></use>
                    <use fill="#FFFFFF" fill-rule="evenodd" xlink:href="#path-1"></use>
                </g>
                <g id="Try-changing-the-run" transform="translate(124.567837, 39.273470) rotate(-4.000000) translate(-124.567837, -39.273470) translate(1.972837, 25.473470)" fill-rule="nonzero">
                    <g id="Path">
                        <use fill="black" fill-opacity="1" filter="url(#filter-4)" xlink:href="#path-3"></use>
                        <use fill="#FFFFFF" xlink:href="#path-3"></use>
                    </g>
                    <g id="Path">
                        <use fill="black" fill-opacity="1" filter="url(#filter-6)" xlink:href="#path-5"></use>
                        <use fill="#FFFFFF" xlink:href="#path-5"></use>
                    </g>
                    <g id="Path">
                        <use fill="black" fill-opacity="1" filter="url(#filter-8)" xlink:href="#path-7"></use>
                        <use fill="#FFFFFF" xlink:href="#path-7"></use>
                    </g>
                    <g id="Path">
                        <use fill="black" fill-opacity="1" filter="url(#filter-10)" xlink:href="#path-9"></use>
                        <use fill="#FFFFFF" xlink:href="#path-9"></use>
                    </g>
                    <g id="Path">
                        <use fill="black" fill-opacity="1" filter="url(#filter-12)" xlink:href="#path-11"></use>
                        <use fill="#FFFFFF" xlink:href="#path-11"></use>
                    </g>
                    <g id="Shape">
                        <use fill="black" fill-opacity="1" filter="url(#filter-14)" xlink:href="#path-13"></use>
                        <use fill="#FFFFFF" xlink:href="#path-13"></use>
                    </g>
                    <g id="Path">
                        <use fill="black" fill-opacity="1" filter="url(#filter-16)" xlink:href="#path-15"></use>
                        <use fill="#FFFFFF" xlink:href="#path-15"></use>
                    </g>
                    <g id="Shape">
                        <use fill="black" fill-opacity="1" filter="url(#filter-18)" xlink:href="#path-17"></use>
                        <use fill="#FFFFFF" xlink:href="#path-17"></use>
                    </g>
                    <g id="Shape">
                        <use fill="black" fill-opacity="1" filter="url(#filter-20)" xlink:href="#path-19"></use>
                        <use fill="#FFFFFF" xlink:href="#path-19"></use>
                    </g>
                    <g id="Path">
                        <use fill="black" fill-opacity="1" filter="url(#filter-22)" xlink:href="#path-21"></use>
                        <use fill="#FFFFFF" xlink:href="#path-21"></use>
                    </g>
                    <g id="Shape">
                        <use fill="black" fill-opacity="1" filter="url(#filter-24)" xlink:href="#path-23"></use>
                        <use fill="#FFFFFF" xlink:href="#path-23"></use>
                    </g>
                    <g id="Path">
                        <use fill="black" fill-opacity="1" filter="url(#filter-26)" xlink:href="#path-25"></use>
                        <use fill="#FFFFFF" xlink:href="#path-25"></use>
                    </g>
                    <g id="Path">
                        <use fill="black" fill-opacity="1" filter="url(#filter-28)" xlink:href="#path-27"></use>
                        <use fill="#FFFFFF" xlink:href="#path-27"></use>
                    </g>
                    <g id="Shape">
                        <use fill="black" fill-opacity="1" filter="url(#filter-30)" xlink:href="#path-29"></use>
                        <use fill="#FFFFFF" xlink:href="#path-29"></use>
                    </g>
                    <g id="Path">
                        <use fill="black" fill-opacity="1" filter="url(#filter-32)" xlink:href="#path-31"></use>
                        <use fill="#FFFFFF" xlink:href="#path-31"></use>
                    </g>
                    <g id="Path">
                        <use fill="black" fill-opacity="1" filter="url(#filter-34)" xlink:href="#path-33"></use>
                        <use fill="#FFFFFF" xlink:href="#path-33"></use>
                    </g>
                    <g id="Path">
                        <use fill="black" fill-opacity="1" filter="url(#filter-36)" xlink:href="#path-35"></use>
                        <use fill="#FFFFFF" xlink:href="#path-35"></use>
                    </g>
                    <g id="Path">
                        <use fill="black" fill-opacity="1" filter="url(#filter-38)" xlink:href="#path-37"></use>
                        <use fill="#FFFFFF" xlink:href="#path-37"></use>
                    </g>
                    <g id="Shape">
                        <use fill="black" fill-opacity="1" filter="url(#filter-40)" xlink:href="#path-39"></use>
                        <use fill="#FFFFFF" xlink:href="#path-39"></use>
                    </g>
                    <g id="Path">
                        <use fill="black" fill-opacity="1" filter="url(#filter-42)" xlink:href="#path-41"></use>
                        <use fill="#FFFFFF" xlink:href="#path-41"></use>
                    </g>
                    <g id="Shape">
                        <use fill="black" fill-opacity="1" filter="url(#filter-44)" xlink:href="#path-43"></use>
                        <use fill="#FFFFFF" xlink:href="#path-43"></use>
                    </g>
                </g>
            </g>
        </g>
    </g>
</svg>